<?xml version="1.0" encoding="UTF-8"?>
    <!DOCTYPE svg PUBLIC "-//W3C//DTD SVG 1.1//EN" "http://www.w3.org/Graphics/SVG/1.1/DTD/svg11.dtd">
    <!-- Creator: CorelDRAW 2021 (64 Bit) -->
    <svg xmlns="http://www.w3.org/2000/svg" xml:space="preserve" width="72px" height="25px" version="1.1" style="shape-rendering:geometricPrecision; text-rendering:geometricPrecision; image-rendering:optimizeQuality; fill-rule:evenodd; clip-rule:evenodd"
    viewBox="0 0 2.24 0.78"
    xmlns:xlink="http://www.w3.org/1999/xlink"
    xmlns:xodm="http://www.corel.com/coreldraw/odm/2003">
    <defs>
    <style type="text/css">
    <![CDATA[
        .fil0 {fill:#FEFEFE;fill-rule:nonzero}
    ]]>
    </style>
    </defs>
    <g id="Camada_x0020_1">
    <metadata id="CorelCorpID_0Corel-Layer"/>
    <g id="_2362489038176">
    <path class="fil0" d="M0.94 0.75c0,0.02 -0.01,0.03 -0.02,0.03 -0.02,0 -0.03,-0.01 -0.03,-0.03l0 -0.45c0,-0.05 0.02,-0.09 0.05,-0.12 0.03,-0.04 0.08,-0.06 0.13,-0.06l0 0 0.13 0c0.05,0 0.09,0.02 0.12,0.06 0.04,0.03 0.06,0.07 0.06,0.12l0 0.1c0,0.04 -0.02,0.09 -0.06,0.12l0 0c-0.03,0.03 -0.07,0.05 -0.12,0.05l0 0 -0.19 0c-0.01,0 -0.02,-0.01 -0.02,-0.02 0,-0.02 0.01,-0.03 0.02,-0.03l0.19 0 0 0c0.03,0 0.06,-0.01 0.09,-0.03l0 -0.01c0.02,-0.02 0.04,-0.05 0.04,-0.08l0 -0.1c0,-0.04 -0.02,-0.07 -0.04,-0.09 -0.02,-0.02 -0.06,-0.04 -0.09,-0.04l-0.13 0 0 0c-0.04,0 -0.07,0.02 -0.09,0.04 -0.03,0.02 -0.04,0.05 -0.04,0.09l0 0.45zm0.45 -0.58c-0.02,0 -0.03,-0.01 -0.03,-0.02 0,-0.01 0.01,-0.03 0.03,-0.03l0.06 0c0.02,0 0.04,0.01 0.06,0.03l0 0c0.01,0.02 0.02,0.04 0.02,0.06l0 0.34c0,0.01 -0.01,0.02 -0.02,0.02 -0.02,0 -0.03,-0.01 -0.03,-0.02l0 -0.34c0,-0.01 0,-0.02 -0.01,-0.02l0 -0.01c0,0 -0.01,-0.01 -0.02,-0.01l-0.06 0zm0.23 0c-0.01,0 -0.03,-0.01 -0.03,-0.02 0,-0.02 0.02,-0.03 0.03,-0.03l0.06 0c0.01,0 0.03,0.01 0.05,0.01 0.01,0.01 0.03,0.02 0.04,0.03l0 0 0.14 0.14c0,0 0,0 0,0 0.01,0 0.01,0 0.01,0 0,0 0.01,0 0.01,0 0,0 0,0 0.01,0l0 0 0.13 -0.14 0 0c0.01,-0.01 0.03,-0.02 0.04,-0.03 0.02,0 0.04,-0.01 0.06,-0.01l0.04 0c0.02,0 0.03,0.02 0.03,0.03 0,0.01 -0.01,0.02 -0.03,0.02l-0.04 0c-0.02,0 -0.03,0.01 -0.04,0.01 -0.01,0 -0.02,0.01 -0.02,0.02l-0.14 0.13 0 0c-0.01,0.01 -0.01,0.01 -0.02,0.02 0.01,0 0.01,0.01 0.02,0.01l0.14 0.14c0,0 0.01,0.01 0.02,0.01 0.01,0.01 0.02,0.01 0.04,0.01l0.04 0c0.02,0 0.03,0.01 0.03,0.03 0,0.01 -0.01,0.02 -0.03,0.02l-0.04 0c-0.02,0 -0.04,0 -0.06,-0.01 -0.01,-0.01 -0.03,-0.02 -0.04,-0.03l0 0 -0.13 -0.13c-0.01,-0.01 -0.01,-0.01 -0.01,-0.01 0,0 -0.01,0 -0.01,0 0,0 0,0 -0.01,0l0 0c0,0 0,0 0,0.01l-0.14 0.13 0 0c-0.01,0.01 -0.03,0.02 -0.04,0.03 -0.02,0.01 -0.04,0.01 -0.05,0.01l-0.06 0c-0.01,0 -0.03,-0.01 -0.03,-0.02 0,-0.02 0.02,-0.03 0.03,-0.03l0.06 0c0.01,0 0.02,0 0.03,-0.01 0.01,0 0.02,-0.01 0.03,-0.01l0.13 -0.14 0 0c0.01,-0.01 0.02,-0.01 0.02,-0.01 -0.01,-0.01 -0.01,-0.01 -0.02,-0.02l-0.13 -0.13c-0.01,-0.01 -0.02,-0.02 -0.03,-0.02 -0.01,0 -0.02,-0.01 -0.03,-0.01l-0.06 0z"/>
    <g>
        <path class="fil0" d="M1.5 0.1l-0.03 -0.03c0,0 -0.01,-0.01 -0.01,-0.01 0,-0.01 0.01,-0.01 0.01,-0.01l0.03 -0.03c0,0 0,0 0.01,0 0,0 0.01,0 0.01,0l0.03 0.03c0,0 0,0 0,0.01 0,0 0,0.01 0,0.01l-0.03 0.03c0,0 -0.01,0 -0.01,0 -0.01,0 -0.01,0 -0.01,0l0 0zm0 0l0 0 0 0z"/>
    </g>
    <path class="fil0" d="M0.57 0.56c0,0 0,0 0,0 -0.03,0 -0.05,-0.01 -0.07,-0.03l-0.11 -0.11c-0.01,0 -0.01,-0.01 -0.02,-0.01 0,0 -0.01,0.01 -0.01,0.01l-0.11 0.11c-0.02,0.02 -0.05,0.03 -0.08,0.03 0,0 0,0 0,0l-0.02 0 0.14 0.14c0.02,0.02 0.05,0.04 0.08,0.04 0.03,0 0.06,-0.02 0.08,-0.04l0.14 -0.14 -0.02 0z"/>
    <path class="fil0" d="M0.17 0.17c0,0 0,0 0,0 0.03,0 0.06,0.01 0.08,0.03l0.11 0.11c0,0.01 0.01,0.01 0.01,0.01 0.01,0 0.01,0 0.02,-0.01l0.11 -0.11c0.02,-0.02 0.04,-0.03 0.07,-0.03 0,0 0,0 0,0l0.02 0 -0.14 -0.14c-0.02,-0.02 -0.05,-0.03 -0.08,-0.03 -0.03,0 -0.06,0.01 -0.08,0.03l-0.14 0.14 0.02 0z"/>
    <g>
        <path class="fil0" d="M0.7 0.29l-0.08 -0.09c0,0 -0.01,0.01 -0.01,0.01l-0.04 0c-0.02,0 -0.04,0 -0.05,0.02l-0.11 0.11c-0.01,0.01 -0.02,0.01 -0.04,0.01 -0.01,0 -0.03,0 -0.04,-0.01l-0.11 -0.11c-0.01,-0.02 -0.03,-0.03 -0.05,-0.03l-0.05 0c0,0 0,0 0,0l-0.09 0.09c-0.02,0.02 -0.03,0.05 -0.03,0.08 0,0.03 0.01,0.06 0.03,0.08l0.09 0.08c0,0 0,0 0,0l0.05 0c0.02,0 0.04,-0.01 0.05,-0.02l0.11 -0.11c0.02,-0.02 0.06,-0.02 0.08,0l0.11 0.11c0.01,0.01 0.03,0.02 0.05,0.02l0.04 0c0,0 0.01,0 0.01,0l0.08 -0.08c0.02,-0.02 0.04,-0.05 0.04,-0.08 0,-0.03 -0.02,-0.06 -0.04,-0.08l0 0zm0 0l0 0 0 0z"/>
    </g>
    </g>
    </g>
</svg>